<svg width="162" height="169" viewBox="0 0 162 169" fill="none" xmlns="http://www.w3.org/2000/svg">
<ellipse cx="81" cy="84.5906" rx="81" ry="84.1273" fill="url(#paint0_angular_16_619)"/>
<path d="M114.681 126.294L104.081 115.431C101.199 118.173 97.9291 120.37 94.2728 122.023C90.6517 123.64 86.5912 124.449 82.0912 124.449C78.5052 124.449 75.1478 123.816 72.0189 122.55C68.89 121.284 66.1654 119.544 63.8451 117.329C61.5248 115.115 59.6966 112.495 58.3607 109.472C57.0248 106.449 56.3568 103.197 56.3568 99.7161C56.3568 95.2513 57.3939 91.2962 59.4681 87.8509C61.5423 84.4056 64.4252 81.3821 68.1166 78.7806C68.1517 78.7806 68.2045 78.7454 68.2748 78.6751L67.2728 77.6204C65.0931 75.3001 63.4056 72.7864 62.2103 70.0794C61.0502 67.3724 60.4701 64.3314 60.4701 60.9564C60.4701 58.0736 61.0502 55.3314 62.2103 52.7298C63.3705 50.1282 64.9701 47.8431 67.0091 45.8743C69.0834 43.8704 71.4916 42.2884 74.2338 41.1282C77.0111 39.9681 80.017 39.388 83.2513 39.388C86.6615 39.388 89.7552 39.9857 92.5326 41.181C95.3099 42.3763 97.683 43.9759 99.6517 45.9798C101.62 47.9486 103.132 50.2337 104.187 52.8353C105.277 55.4017 105.822 58.0736 105.822 60.8509C105.822 62.8196 105.558 64.7181 105.031 66.5462C104.538 68.3743 103.835 70.0794 102.921 71.6614C102.042 73.2435 101.005 74.7025 99.8099 76.0384C98.6146 77.3392 97.349 78.4642 96.013 79.4134C95.4154 79.8353 94.8353 80.2571 94.2728 80.679C93.7103 81.0657 93.1302 81.4525 92.5326 81.8392L101.181 90.3821C101.673 88.8001 102.077 87.2884 102.394 85.847C102.745 84.3704 103.027 82.9818 103.238 81.681H119.005C118.759 85.0911 118.161 88.5716 117.212 92.1224C116.298 95.638 115.033 99.0657 113.415 102.406L126.863 115.589L114.681 126.294ZM73.0209 99.3997C73.0209 100.56 73.2494 101.685 73.7064 102.775C74.1634 103.829 74.7963 104.779 75.6048 105.622C76.4486 106.466 77.4505 107.134 78.6107 107.626C79.7709 108.118 81.0716 108.365 82.513 108.365C84.7279 108.365 86.6966 107.995 88.4193 107.257C90.1771 106.484 91.7591 105.464 93.1654 104.199L79.349 90.0657C78.3998 90.6634 77.5209 91.2786 76.7123 91.9114C75.9388 92.5443 75.2709 93.2298 74.7084 93.9681C74.181 94.7064 73.7591 95.5325 73.4427 96.4466C73.1615 97.3255 73.0209 98.3099 73.0209 99.3997ZM87.1537 67.6536C88.2787 66.845 89.0697 65.8958 89.5267 64.806C90.0189 63.681 90.265 62.3626 90.265 60.8509C90.265 59.9017 90.0716 59.0052 89.6849 58.1614C89.3334 57.3177 88.8236 56.5794 88.1556 55.9466C87.5228 55.2786 86.7845 54.7689 85.9408 54.4173C85.097 54.0306 84.2005 53.8372 83.2513 53.8372C82.1263 53.8372 81.1068 54.013 80.1927 54.3646C79.2787 54.7161 78.4877 55.2083 77.8197 55.8411C77.1517 56.4739 76.6244 57.2298 76.2377 58.1087C75.8861 58.9525 75.7103 59.8665 75.7103 60.8509C75.7103 62.2571 75.9564 63.6282 76.4486 64.9642C76.9759 66.265 77.6966 67.3372 78.6107 68.181L81.5638 71.0814C82.6537 70.4837 83.6732 69.9036 84.6224 69.3411C85.5716 68.7786 86.4154 68.2161 87.1537 67.6536Z" fill="#98CE00"/>
<path d="M114.681 126.294L114.295 126.671L114.652 127.038L115.037 126.7L114.681 126.294ZM104.081 115.431L104.468 115.054L104.096 114.672L103.709 115.04L104.081 115.431ZM94.2728 122.023L94.493 122.516L94.4952 122.515L94.2728 122.023ZM59.4681 87.8509L59.0055 87.5724L59.4681 87.8509ZM68.1166 78.7806V78.2406H67.9454L67.8055 78.3392L68.1166 78.7806ZM68.2748 78.6751L68.6566 79.0569L69.0288 78.6848L68.6663 78.3032L68.2748 78.6751ZM67.2728 77.6204L66.8792 77.9902L66.8813 77.9924L67.2728 77.6204ZM62.2103 70.0794L61.7139 70.2921L61.7163 70.2975L62.2103 70.0794ZM67.0091 45.8743L67.3842 46.2628L67.3843 46.2627L67.0091 45.8743ZM74.2338 41.1282L74.0256 40.63L74.0233 40.6309L74.2338 41.1282ZM99.6517 45.9798L99.2665 46.3583L99.2699 46.3616L99.6517 45.9798ZM104.187 52.8353L103.686 53.0382L103.69 53.0463L104.187 52.8353ZM105.031 66.5462L104.512 66.3965L104.509 66.4058L105.031 66.5462ZM102.921 71.6614L102.454 71.3913L102.449 71.3992L102.921 71.6614ZM99.8099 76.0384L100.208 76.4038L100.212 76.3985L99.8099 76.0384ZM96.013 79.4134L96.3245 79.8546L96.3258 79.8536L96.013 79.4134ZM94.2728 80.679L94.5787 81.124L94.5879 81.1177L94.5968 81.111L94.2728 80.679ZM92.5326 81.8392L92.2392 81.3858L91.6749 81.751L92.1531 82.2234L92.5326 81.8392ZM101.181 90.3821L100.802 90.7663L101.433 91.3901L101.697 90.5426L101.181 90.3821ZM102.394 85.847L101.869 85.7219L101.866 85.7312L102.394 85.847ZM103.238 81.681V81.141H102.778L102.705 81.5945L103.238 81.681ZM119.005 81.681L119.544 81.7198L119.586 81.141H119.005V81.681ZM117.212 92.1224L116.691 91.9829L116.69 91.9865L117.212 92.1224ZM113.415 102.406L112.929 102.17L112.76 102.52L113.037 102.791L113.415 102.406ZM126.863 115.589L127.219 115.995L127.656 115.611L127.241 115.204L126.863 115.589ZM73.7064 102.775L73.2084 102.984L73.2109 102.989L73.7064 102.775ZM75.6048 105.622L75.2149 105.996L75.223 106.004L75.6048 105.622ZM78.6107 107.626L78.8216 107.129L78.6107 107.626ZM88.4193 107.257L88.632 107.754L88.6368 107.751L88.4193 107.257ZM93.1654 104.199L93.5266 104.6L93.9449 104.223L93.5515 103.821L93.1654 104.199ZM79.349 90.0657L79.7351 89.6882L79.4303 89.3764L79.0613 89.6088L79.349 90.0657ZM76.7123 91.9114L76.3794 91.4861L76.3703 91.4935L76.7123 91.9114ZM74.7084 93.9681L74.2788 93.6408L74.2738 93.6474L74.2689 93.6542L74.7084 93.9681ZM73.4427 96.4466L72.9323 96.2699L72.9284 96.282L73.4427 96.4466ZM87.1537 67.6536L86.8385 67.2151L86.8324 67.2195L86.8264 67.2241L87.1537 67.6536ZM89.5267 64.806L89.0319 64.5895L89.0287 64.5971L89.5267 64.806ZM89.6849 58.1614L89.1865 58.3691L89.1901 58.3779L89.194 58.3864L89.6849 58.1614ZM88.1556 55.9466L87.7636 56.318L87.7736 56.3286L87.7842 56.3386L88.1556 55.9466ZM85.9408 54.4173L85.7158 54.9082L85.7244 54.9121L85.7331 54.9158L85.9408 54.4173ZM76.2377 58.1087L75.7433 57.8912L75.7392 57.901L76.2377 58.1087ZM76.4486 64.9642L75.9419 65.1509L75.9449 65.159L75.9482 65.1671L76.4486 64.9642ZM78.6107 68.181L78.9891 67.7957L78.9831 67.7899L78.977 67.7842L78.6107 68.181ZM81.5638 71.0814L81.1854 71.4666L81.4717 71.7478L81.8235 71.5548L81.5638 71.0814ZM84.6224 69.3411L84.8977 69.8057L84.6224 69.3411ZM115.068 125.917L104.468 115.054L103.695 115.808L114.295 126.671L115.068 125.917ZM103.709 115.04C100.871 117.74 97.6519 119.903 94.0504 121.531L94.4952 122.515C98.2062 120.838 101.526 118.607 104.454 115.822L103.709 115.04ZM94.0526 121.53C90.5096 123.112 86.5255 123.909 82.0912 123.909V124.989C86.6568 124.989 90.7939 124.168 94.493 122.516L94.0526 121.53ZM82.0912 123.909C78.5702 123.909 75.282 123.288 72.2214 122.05L71.8164 123.051C75.0136 124.344 78.4402 124.989 82.0912 124.989V123.909ZM72.2214 122.05C69.1524 120.808 66.4864 119.104 64.2179 116.939L63.4722 117.72C65.8444 119.984 68.6276 121.761 71.8164 123.051L72.2214 122.05ZM64.2179 116.939C61.9505 114.774 60.1628 112.214 58.8546 109.254L57.8668 109.69C59.2305 112.776 61.0991 115.455 63.4722 117.72L64.2179 116.939ZM58.8546 109.254C57.5507 106.303 56.8968 103.125 56.8968 99.7161H55.8168C55.8168 103.268 56.4989 106.594 57.8668 109.69L58.8546 109.254ZM56.8968 99.7161C56.8968 95.3383 57.9126 91.4816 59.9308 88.1294L59.0055 87.5724C56.8752 91.1108 55.8168 95.1643 55.8168 99.7161H56.8968ZM59.9308 88.1294C61.9618 84.7558 64.79 81.7857 68.4276 79.222L67.8055 78.3392C64.0604 80.9786 61.1229 84.0554 59.0055 87.5724L59.9308 88.1294ZM68.1166 79.3206C68.2965 79.3206 68.4288 79.239 68.482 79.2035C68.5497 79.1584 68.6088 79.1048 68.6566 79.0569L67.8929 78.2933C67.8705 78.3157 67.868 78.3149 67.8829 78.3049C67.8911 78.2995 67.9125 78.2859 67.9457 78.2726C67.9777 78.2598 68.0374 78.2406 68.1166 78.2406V79.3206ZM68.6663 78.3032L67.6643 77.2485L66.8813 77.9924L67.8833 79.047L68.6663 78.3032ZM67.6664 77.2507C65.5253 74.9715 63.8731 72.5084 62.7043 69.8613L61.7163 70.2975C62.9381 73.0645 64.6609 75.6287 66.8792 77.9902L67.6664 77.2507ZM62.7067 69.8667C61.5792 67.236 61.0101 64.2688 61.0101 60.9564H59.9301C59.9301 64.3939 60.5211 67.5088 61.714 70.2921L62.7067 69.8667ZM61.0101 60.9564C61.0101 58.1484 61.5746 55.4812 62.7035 52.9497L61.7171 52.5099C60.5257 55.1815 59.9301 57.9987 59.9301 60.9564H61.0101ZM62.7035 52.9497C63.8356 50.4111 65.3952 48.1832 67.3842 46.2628L66.6341 45.4859C64.5449 47.5029 62.9053 49.8454 61.7171 52.5099L62.7035 52.9497ZM67.3843 46.2627C69.4092 44.3064 71.7611 42.7607 74.4442 41.6256L74.0233 40.6309C71.222 41.8161 68.7575 43.4344 66.6339 45.486L67.3843 46.2627ZM74.4419 41.6265C77.1485 40.4959 80.083 39.928 83.2513 39.928V38.848C79.9509 38.848 76.8737 39.4403 74.0256 40.63L74.4419 41.6265ZM83.2513 39.928C86.5975 39.928 89.6173 40.5142 92.3191 41.677L92.7461 40.685C89.8932 39.4571 86.7255 38.848 83.2513 38.848V39.928ZM92.3191 41.677C95.0371 42.8467 97.3505 44.408 99.2665 46.3582L100.037 45.6014C98.0154 43.5438 95.5828 41.9058 92.7461 40.685L92.3191 41.677ZM99.2699 46.3616C101.187 48.2788 102.659 50.503 103.686 53.0382L104.687 52.6324C103.606 49.9644 102.054 47.6183 100.034 45.598L99.2699 46.3616ZM103.69 53.0463C104.751 55.5463 105.282 58.1464 105.282 60.8509H106.362C106.362 58.0007 105.802 55.2571 104.684 52.6242L103.69 53.0463ZM105.282 60.8509C105.282 62.7708 105.025 64.6187 104.512 66.3965L105.549 66.6959C106.091 64.8174 106.362 62.8685 106.362 60.8509H105.282ZM104.509 66.4058C104.029 68.1902 103.343 69.8514 102.454 71.3913L103.389 71.9316C104.327 70.3074 105.048 68.5585 105.552 66.6866L104.509 66.4058ZM102.449 71.3992C101.59 72.9465 100.576 74.3726 99.4075 75.6783L100.212 76.3985C101.435 75.0323 102.495 73.5405 103.393 71.9237L102.449 71.3992ZM99.4123 75.673C98.2406 76.9481 97.0031 78.0475 95.7003 78.9732L96.3258 79.8536C97.6949 78.8808 98.9886 77.7302 100.208 76.4038L99.4123 75.673ZM95.7016 78.9722C95.0999 79.397 94.5156 79.8219 93.9488 80.247L94.5968 81.111C95.155 80.6924 95.7309 80.2736 96.3245 79.8546L95.7016 78.9722ZM93.9669 80.234C93.4087 80.6178 92.8328 81.0017 92.2392 81.3858L92.8259 82.2925C93.4276 81.9032 94.0119 81.5137 94.5787 81.124L93.9669 80.234ZM92.1531 82.2234L100.802 90.7663L101.561 89.998L92.9121 81.455L92.1531 82.2234ZM101.697 90.5426C102.193 88.9476 102.601 87.4209 102.921 85.9628L101.866 85.7312C101.554 87.1559 101.154 88.6526 100.665 90.2217L101.697 90.5426ZM102.919 85.9721C103.273 84.4846 103.557 83.0829 103.771 81.7674L102.705 81.5945C102.496 82.8806 102.218 84.2563 101.869 85.7219L102.919 85.9721ZM103.238 82.221H119.005V81.141H103.238V82.221ZM118.467 81.6421C118.223 85.0158 117.632 88.4626 116.691 91.9829L117.734 92.2618C118.691 88.6806 119.295 85.1664 119.544 81.7198L118.467 81.6421ZM116.69 91.9865C115.785 95.4671 114.531 98.8616 112.929 102.17L113.901 102.641C115.534 99.2699 116.812 95.8089 117.735 92.2583L116.69 91.9865ZM113.037 102.791L126.485 115.975L127.241 115.204L113.793 102.02L113.037 102.791ZM126.506 115.184L114.325 125.889L115.037 126.7L127.219 115.995L126.506 115.184ZM72.4809 99.3997C72.4809 100.633 72.7242 101.829 73.2084 102.984L74.2044 102.566C73.7746 101.541 73.5609 100.487 73.5609 99.3997H72.4809ZM73.2109 102.989C73.6939 104.104 74.3628 105.107 75.215 105.996L75.9947 105.249C75.2297 104.45 74.633 103.555 74.2019 102.56L73.2109 102.989ZM75.223 106.004C76.1185 106.9 77.1794 107.606 78.3998 108.123L78.8216 107.129C77.7217 106.663 76.7787 106.033 75.9867 105.241L75.223 106.004ZM78.3998 108.123C79.6356 108.648 81.0095 108.905 82.513 108.905V107.825C81.1338 107.825 79.9061 107.589 78.8216 107.129L78.3998 108.123ZM82.513 108.905C84.7879 108.905 86.8311 108.525 88.632 107.753L88.2066 106.761C86.5622 107.466 84.6679 107.825 82.513 107.825V108.905ZM88.6368 107.751C90.4463 106.955 92.0771 105.905 93.5266 104.6L92.8041 103.797C91.4412 105.024 89.9079 106.012 88.2018 106.763L88.6368 107.751ZM93.5515 103.821L79.7351 89.6882L78.9629 90.4432L92.7793 104.576L93.5515 103.821ZM79.0613 89.6088C78.0979 90.2153 77.2038 90.8411 76.3795 91.4862L77.0451 92.3367C77.8379 91.7162 78.7016 91.1115 79.6367 90.5227L79.0613 89.6088ZM76.3703 91.4935C75.5667 92.151 74.8688 92.8665 74.2788 93.6408L75.1379 94.2953C75.673 93.5931 76.3109 92.9375 77.0542 92.3294L76.3703 91.4935ZM74.2689 93.6542C73.7096 94.4373 73.2647 95.3102 72.9324 96.27L73.953 96.6232C74.2536 95.7548 74.6524 94.9754 75.1478 94.282L74.2689 93.6542ZM72.9284 96.282C72.6274 97.2227 72.4809 98.2638 72.4809 99.3997H73.5609C73.5609 98.3559 73.6956 97.4283 73.957 96.6112L72.9284 96.282ZM87.4688 68.0921C88.6607 67.2355 89.5229 66.2115 90.0247 65.0148L89.0287 64.5971C88.6165 65.5802 87.8967 66.4546 86.8385 67.2151L87.4688 68.0921ZM90.0214 65.0224C90.5495 63.8153 90.805 62.4204 90.805 60.8509H89.725C89.725 62.3049 89.4883 63.5466 89.032 64.5895L90.0214 65.0224ZM90.805 60.8509C90.805 59.8258 90.5956 58.8524 90.1758 57.9365L89.194 58.3864C89.5476 59.158 89.725 59.9775 89.725 60.8509H90.805ZM90.1834 57.9538C89.8026 57.0399 89.2494 56.2389 88.527 55.5546L87.7842 56.3386C88.3978 56.9199 88.8641 57.5955 89.1865 58.3691L90.1834 57.9538ZM88.5476 55.5752C87.8633 54.8529 87.0623 54.2996 86.1485 53.9188L85.7331 54.9158C86.5067 55.2381 87.1823 55.7044 87.7636 56.318L88.5476 55.5752ZM86.1658 53.9264C85.2498 53.5066 84.2764 53.2972 83.2513 53.2972V54.3772C84.1247 54.3772 84.9443 54.5546 85.7158 54.9082L86.1658 53.9264ZM83.2513 53.2972C82.0698 53.2972 80.9833 53.4819 79.9989 53.8606L80.3866 54.8686C81.2303 54.5441 82.1829 54.3772 83.2513 54.3772V53.2972ZM79.9989 53.8606C79.0232 54.2358 78.1708 54.7647 77.4483 55.4491L78.1911 56.2331C78.8045 55.652 79.5342 55.1964 80.3866 54.8686L79.9989 53.8606ZM77.4483 55.4491C76.7259 56.1335 76.1578 56.9495 75.7434 57.8912L76.7319 58.3262C77.091 57.5101 77.5775 56.8144 78.1911 56.2331L77.4483 55.4491ZM75.7392 57.901C75.3582 58.8155 75.1703 59.8008 75.1703 60.8509H76.2503C76.2503 59.9323 76.414 59.0894 76.7361 58.3164L75.7392 57.901ZM75.1703 60.8509C75.1703 62.3217 75.428 63.7559 75.9419 65.1509L76.9553 64.7775C76.4849 63.5006 76.2503 62.1926 76.2503 60.8509H75.1703ZM75.9482 65.1671C76.5015 66.5321 77.2648 67.6735 78.2444 68.5778L78.977 67.7842C78.1285 67.0009 77.4503 65.9978 76.949 64.7613L75.9482 65.1671ZM78.2323 68.5662L81.1854 71.4666L81.9422 70.6961L78.9891 67.7957L78.2323 68.5662ZM81.8235 71.5548C82.9179 70.9547 83.9427 70.3716 84.8977 69.8057L84.3471 68.8766C83.4037 69.4357 82.3894 70.0128 81.3042 70.6079L81.8235 71.5548ZM84.8977 69.8057C85.8617 69.2345 86.7233 68.6604 87.4809 68.0832L86.8264 67.2241C86.1075 67.7718 85.2816 68.3228 84.3471 68.8766L84.8977 69.8057Z" fill="black"/>
<path d="M107.544 64.4061H124.657V71.6571H120.438V97.1542H129.139C129.368 97.1542 129.587 97.0927 129.798 96.9696C130.027 96.829 130.22 96.6532 130.378 96.4423C130.554 96.2313 130.695 96.0028 130.8 95.7567C130.906 95.5106 130.958 95.2733 130.958 95.0448V89.6923H139.501V104.379H107.544V97.1542H111.684V71.6571H107.544V64.4061Z" fill="white"/>
<path d="M107.544 64.4061V63.8661H107.004V64.4061H107.544ZM124.657 64.4061H125.197V63.8661H124.657V64.4061ZM124.657 71.6571V72.1971H125.197V71.6571H124.657ZM120.438 71.6571V71.1171H119.898V71.6571H120.438ZM120.438 97.1542H119.898V97.6942H120.438V97.1542ZM129.798 96.9696L130.07 97.4362L130.081 97.4295L129.798 96.9696ZM130.378 96.4423L129.964 96.0966L129.955 96.1072L129.946 96.1183L130.378 96.4423ZM130.958 89.6923V89.1523H130.418V89.6923H130.958ZM139.501 89.6923H140.041V89.1523H139.501V89.6923ZM139.501 104.379V104.919H140.041V104.379H139.501ZM107.544 104.379H107.004V104.919H107.544V104.379ZM107.544 97.1542V96.6142H107.004V97.1542H107.544ZM111.684 97.1542V97.6942H112.224V97.1542H111.684ZM111.684 71.6571H112.224V71.1171H111.684V71.6571ZM107.544 71.6571H107.004V72.1971H107.544V71.6571ZM107.544 64.9461H124.657V63.8661H107.544V64.9461ZM124.117 64.4061V71.6571H125.197V64.4061H124.117ZM124.657 71.1171H120.438V72.1971H124.657V71.1171ZM119.898 71.6571V97.1542H120.978V71.6571H119.898ZM120.438 97.6942H129.139V96.6142H120.438V97.6942ZM129.139 97.6942C129.47 97.6942 129.783 97.6038 130.07 97.436L129.526 96.5032C129.392 96.5815 129.265 96.6142 129.139 96.6142V97.6942ZM130.081 97.4295C130.367 97.254 130.611 97.0324 130.81 96.7663L129.946 96.1183C129.83 96.274 129.687 96.404 129.515 96.5097L130.081 97.4295ZM130.793 96.788C131.002 96.5379 131.17 96.2648 131.297 95.9694L130.304 95.544C130.22 95.7408 130.107 95.9247 129.964 96.0966L130.793 96.788ZM131.297 95.9694C131.426 95.6675 131.498 95.3579 131.498 95.0448H130.418C130.418 95.1887 130.385 95.3537 130.304 95.544L131.297 95.9694ZM131.498 95.0448V89.6923H130.418V95.0448H131.498ZM130.958 90.2323H139.501V89.1523H130.958V90.2323ZM138.961 89.6923V104.379H140.041V89.6923H138.961ZM139.501 103.839H107.544V104.919H139.501V103.839ZM108.084 104.379V97.1542H107.004V104.379H108.084ZM107.544 97.6942H111.684V96.6142H107.544V97.6942ZM112.224 97.1542V71.6571H111.144V97.1542H112.224ZM111.684 71.1171H107.544V72.1971H111.684V71.1171ZM108.084 71.6571V64.4061H107.004V71.6571H108.084Z" fill="black"/>
<path d="M33.6705 58.7269L52.1275 58.7342C54.1842 58.735 56.0737 59.061 57.7961 59.712C59.5185 60.3455 61.0036 61.2074 62.2512 62.2978C63.4989 63.3881 64.474 64.6453 65.1766 66.0694C65.8792 67.4935 66.2302 68.979 66.2296 70.5259C66.229 72.3892 65.9471 74.1381 65.384 75.7726C64.8385 77.3896 63.9854 78.7955 62.8248 79.9904C61.6642 81.1852 60.1961 82.1339 58.4205 82.8363C56.6448 83.5211 54.5441 83.8631 52.1183 83.8621L46.5548 83.8599L46.552 91.48L50.2171 91.4815L50.2144 98.7061L33.6559 98.6996L33.6585 91.4749L37.7981 91.4766L37.8075 65.9795L33.6678 65.9779L33.6705 58.7269ZM46.5614 65.983L46.5575 76.7144L50.1698 76.7158C52.1737 76.7166 53.7646 76.2954 54.9427 75.4521C56.1207 74.6088 56.7101 73.2731 56.7108 71.445C56.7114 69.7399 56.1582 68.4038 55.0511 67.4365C53.944 66.4693 52.3182 65.9852 50.1737 65.9844L46.5614 65.983Z" fill="white"/>
<path d="M33.6705 58.7269L33.6707 58.1869L33.1307 58.1867L33.1305 58.7267L33.6705 58.7269ZM57.7961 59.712L57.6052 60.2172L57.6097 60.2188L57.7961 59.712ZM62.2512 62.2978L62.6066 61.8912L62.2512 62.2978ZM65.384 75.7726L64.8734 75.5967L64.8723 75.6L65.384 75.7726ZM58.4204 82.8363L58.6148 83.3401L58.6191 83.3384L58.4204 82.8363ZM46.5548 83.8599L46.555 83.3199L46.015 83.3197L46.0148 83.8597L46.5548 83.8599ZM46.552 91.48L46.0121 91.4798L46.0119 92.0198L46.5519 92.02L46.552 91.48ZM50.2171 91.4815L50.7571 91.4817L50.7573 90.9417L50.2173 90.9415L50.2171 91.4815ZM50.2144 98.7061L50.2142 99.2461L50.7542 99.2463L50.7544 98.7063L50.2144 98.7061ZM33.6559 98.6996L33.1159 98.6993L33.1157 99.2393L33.6557 99.2396L33.6559 98.6996ZM33.6585 91.4749L33.6587 90.9349L33.1187 90.9347L33.1185 91.4747L33.6585 91.4749ZM37.7981 91.4766L37.7979 92.0166L38.3379 92.0168L38.3381 91.4768L37.7981 91.4766ZM37.8075 65.9795L38.3475 65.9797L38.3477 65.4397L37.8077 65.4395L37.8075 65.9795ZM33.6678 65.9779L33.1278 65.9777L33.1276 66.5177L33.6676 66.5179L33.6678 65.9779ZM46.5614 65.983L46.5616 65.443L46.0216 65.4428L46.0214 65.9828L46.5614 65.983ZM46.5575 76.7144L46.0175 76.7142L46.0173 77.2542L46.5573 77.2544L46.5575 76.7144ZM55.0511 67.4365L54.6958 67.8432L55.0511 67.4365ZM33.6703 59.2669L52.1273 59.2742L52.1277 58.1942L33.6707 58.1869L33.6703 59.2669ZM52.1273 59.2742C54.1264 59.275 55.9504 59.5916 57.6052 60.2171L57.987 59.2069C56.197 58.5303 54.2419 58.195 52.1277 58.1942L52.1273 59.2742ZM57.6097 60.2188C59.2768 60.832 60.703 61.6619 61.8959 62.7044L62.6066 61.8912C61.3041 60.7529 59.7602 59.8591 57.9825 59.2052L57.6097 60.2188ZM61.8959 62.7044C63.0923 63.7499 64.0226 64.9509 64.6923 66.3083L65.6609 65.8305C64.9254 64.3398 63.9054 63.0263 62.6066 61.8912L61.8959 62.7044ZM64.6923 66.3083C65.3592 67.6601 65.6902 69.064 65.6896 70.5257L66.7696 70.5261C66.7702 68.8941 66.3991 67.327 65.6609 65.8305L64.6923 66.3083ZM65.6896 70.5257C65.689 72.3338 65.4156 74.023 64.8734 75.5967L65.8945 75.9485C66.4786 74.2532 66.7689 72.4445 66.7696 70.5261L65.6896 70.5257ZM64.8723 75.6C64.3519 77.1426 63.5406 78.4785 62.4375 79.6141L63.2122 80.3666C64.4303 79.1126 65.325 77.6366 65.8956 75.9453L64.8723 75.6ZM62.4375 79.6141C61.3374 80.7467 59.9367 81.6558 58.2218 82.3342L58.6191 83.3384C60.4555 82.612 61.991 81.6238 63.2122 80.3666L62.4375 79.6141ZM58.2261 82.3325C56.527 82.9878 54.4952 83.3231 52.1185 83.3221L52.1181 84.4021C54.5929 84.4031 56.7626 84.0545 58.6148 83.3401L58.2261 82.3325ZM52.1185 83.3221L46.555 83.3199L46.5546 84.3999L52.1181 84.4021L52.1185 83.3221ZM46.0148 83.8597L46.0121 91.4798L47.0921 91.4803L47.0948 83.8601L46.0148 83.8597ZM46.5519 92.02L50.2169 92.0215L50.2173 90.9415L46.5522 90.94L46.5519 92.02ZM49.6771 91.4813L49.6744 98.7059L50.7544 98.7063L50.7571 91.4817L49.6771 91.4813ZM50.2146 98.1661L33.656 98.1596L33.6557 99.2396L50.2142 99.2461L50.2146 98.1661ZM34.1959 98.6998L34.1985 91.4752L33.1185 91.4747L33.1159 98.6993L34.1959 98.6998ZM33.6583 92.0149L37.7979 92.0166L37.7983 90.9366L33.6587 90.9349L33.6583 92.0149ZM38.3381 91.4768L38.3475 65.9797L37.2675 65.9793L37.2581 91.4764L38.3381 91.4768ZM37.8077 65.4395L33.668 65.4379L33.6676 66.5179L37.8073 66.5195L37.8077 65.4395ZM34.2078 65.9781L34.2105 58.7271L33.1305 58.7267L33.1278 65.9777L34.2078 65.9781ZM46.0214 65.9828L46.0175 76.7142L47.0975 76.7146L47.1014 65.9832L46.0214 65.9828ZM46.5573 77.2544L50.1696 77.2558L50.17 76.1758L46.5577 76.1744L46.5573 77.2544ZM50.1696 77.2558C52.2441 77.2567 53.9581 76.821 55.257 75.8912L54.6284 75.013C53.5712 75.7698 52.1032 76.1766 50.17 76.1758L50.1696 77.2558ZM55.257 75.8912C56.6135 74.9202 57.25 73.3966 57.2508 71.4452L56.1708 71.4448C56.1701 73.1496 55.628 74.2974 54.6284 75.013L55.257 75.8912ZM57.2508 71.4452C57.2514 69.6118 56.6502 68.1165 55.4064 67.0299L54.6958 67.8432C55.6662 68.691 56.1713 69.8681 56.1708 71.4448L57.2508 71.4452ZM55.4064 67.0299C54.1643 65.9447 52.3903 65.4453 50.1739 65.4444L50.1735 66.5244C52.2461 66.5252 53.7238 66.9939 54.6958 67.8432L55.4064 67.0299ZM50.1739 65.4444L46.5616 65.443L46.5612 66.523L50.1735 66.5244L50.1739 65.4444Z" fill="black"/>
<defs>
<radialGradient id="paint0_angular_16_619" cx="0" cy="0" r="1" gradientUnits="userSpaceOnUse" gradientTransform="translate(81 84.5906) rotate(49.8977) scale(134.549 133.778)">
<stop stop-color="#6F8695"/>
<stop offset="1" stop-color="#6F8695" stop-opacity="0"/>
</radialGradient>
</defs>
</svg>
