<svg width="71" height="63" viewBox="0 0 71 63" fill="none" xmlns="http://www.w3.org/2000/svg">
<path d="M35.4876 33.3871C39.5775 28.5178 45.014 24.9591 51.1181 23.1558C48.9228 13.7877 43.3614 5.54884 35.4876 0C27.6157 5.54972 22.0562 13.7885 19.8621 23.1558C25.9644 24.96 31.399 28.5186 35.4876 33.3871Z" fill="#0D9748"/>
<path d="M18.9055 31.6187C18.9058 28.7709 19.2267 25.9321 19.8621 23.1557C13.6417 21.3328 7.01728 21.4085 0.840267 23.373C-0.258197 28.1109 -0.271956 33.035 0.800027 37.7789C1.87201 42.5228 4.00212 46.9642 7.03179 50.7726C10.0615 54.581 13.9127 57.6582 18.2987 59.7752C22.6847 61.8923 27.4927 62.9945 32.3646 63C33.2605 63 34.1463 62.9596 35.0219 62.8888C25.2225 55.694 18.9055 44.3612 18.9055 31.6187Z" fill="#0D9748"/>
<path d="M70.14 23.373C63.963 21.4085 57.3386 21.3328 51.1182 23.1557C51.7519 25.9323 52.0711 28.7711 52.0698 31.6187C52.0698 44.3612 45.7527 55.694 35.9583 62.8888C36.834 62.9596 37.7249 63 38.6208 63C43.4923 62.9938 48.2996 61.8909 52.685 59.7736C57.0704 57.6562 60.921 54.5789 63.9501 50.7706C66.9792 46.9623 69.1088 42.5212 70.1805 37.7776C71.2522 33.0341 71.2384 28.1104 70.14 23.373Z" fill="#0D9748"/>
<path d="M52.0697 31.6187C52.0711 28.7711 51.7519 25.9323 51.1181 23.1557C45.014 24.9591 39.5775 28.5178 35.4876 33.3871C31.3991 28.5186 25.9644 24.96 19.8621 23.1557C19.2284 25.9323 18.9092 28.7711 18.9105 31.6187C18.9105 44.3612 25.2275 55.694 35.0219 62.8888L35.4927 62.8484L35.9634 62.8888C45.7527 55.694 52.0697 44.3612 52.0697 31.6187Z" fill="#41FB99"/>
</svg>
